<mxfile host="app.diagrams.net" modified="2023-04-04T14:40:40.209Z" agent="Mozilla/5.0 (X11; Ubuntu; Linux x86_64; rv:109.0) Gecko/20100101 Firefox/111.0" etag="Aozz4O9KlmoVNi-LhDqL" version="21.1.2" type="github">
  <diagram name="Page-1" id="tZN8h-yP0Pfk3z39VqUv">
    <mxGraphModel dx="988" dy="545" grid="1" gridSize="10" guides="1" tooltips="1" connect="1" arrows="1" fold="1" page="1" pageScale="1" pageWidth="850" pageHeight="1100" math="0" shadow="0">
      <root>
        <mxCell id="0" />
        <mxCell id="1" parent="0" />
        <mxCell id="XRuTqBJxQ71Pvd6YJQHX-1" value="sent_seq" style="rounded=0;whiteSpace=wrap;html=1;" parent="1" vertex="1">
          <mxGeometry x="240" y="360" width="120" height="60" as="geometry" />
        </mxCell>
        <mxCell id="XRuTqBJxQ71Pvd6YJQHX-2" value="" style="endArrow=none;html=1;rounded=0;" parent="1" edge="1">
          <mxGeometry width="50" height="50" relative="1" as="geometry">
            <mxPoint x="200" y="200" as="sourcePoint" />
            <mxPoint x="680" y="200" as="targetPoint" />
          </mxGeometry>
        </mxCell>
        <mxCell id="XRuTqBJxQ71Pvd6YJQHX-3" value="&lt;div&gt;Driver&lt;/div&gt;" style="text;html=1;strokeColor=none;fillColor=none;align=center;verticalAlign=middle;whiteSpace=wrap;rounded=0;" parent="1" vertex="1">
          <mxGeometry x="130" y="520" width="60" height="30" as="geometry" />
        </mxCell>
        <mxCell id="XRuTqBJxQ71Pvd6YJQHX-4" value="User Space" style="text;html=1;strokeColor=none;fillColor=none;align=center;verticalAlign=middle;whiteSpace=wrap;rounded=0;" parent="1" vertex="1">
          <mxGeometry x="130" y="120" width="60" height="30" as="geometry" />
        </mxCell>
        <mxCell id="XRuTqBJxQ71Pvd6YJQHX-5" value="Kernel Space" style="text;html=1;strokeColor=none;fillColor=none;align=center;verticalAlign=middle;whiteSpace=wrap;rounded=0;" parent="1" vertex="1">
          <mxGeometry x="130" y="250" width="60" height="30" as="geometry" />
        </mxCell>
        <mxCell id="XRuTqBJxQ71Pvd6YJQHX-7" value="" style="endArrow=none;html=1;rounded=0;" parent="1" edge="1">
          <mxGeometry width="50" height="50" relative="1" as="geometry">
            <mxPoint x="200" y="480" as="sourcePoint" />
            <mxPoint x="680" y="480" as="targetPoint" />
          </mxGeometry>
        </mxCell>
        <mxCell id="XRuTqBJxQ71Pvd6YJQHX-9" value="" style="endArrow=none;html=1;rounded=0;" parent="1" edge="1">
          <mxGeometry width="50" height="50" relative="1" as="geometry">
            <mxPoint x="200" y="680" as="sourcePoint" />
            <mxPoint x="680" y="680" as="targetPoint" />
          </mxGeometry>
        </mxCell>
        <mxCell id="XRuTqBJxQ71Pvd6YJQHX-10" value="write_seq" style="rounded=0;whiteSpace=wrap;html=1;" parent="1" vertex="1">
          <mxGeometry x="240" y="240" width="120" height="60" as="geometry" />
        </mxCell>
        <mxCell id="XRuTqBJxQ71Pvd6YJQHX-11" value="copied_seq" style="rounded=0;whiteSpace=wrap;html=1;" parent="1" vertex="1">
          <mxGeometry x="520" y="240" width="120" height="60" as="geometry" />
        </mxCell>
        <mxCell id="XRuTqBJxQ71Pvd6YJQHX-12" value="acked_seq" style="rounded=0;whiteSpace=wrap;html=1;" parent="1" vertex="1">
          <mxGeometry x="520" y="360" width="120" height="60" as="geometry" />
        </mxCell>
        <mxCell id="XRuTqBJxQ71Pvd6YJQHX-13" value="Actor" style="shape=umlActor;verticalLabelPosition=bottom;verticalAlign=top;html=1;outlineConnect=0;" parent="1" vertex="1">
          <mxGeometry x="425" y="40" width="30" height="60" as="geometry" />
        </mxCell>
        <mxCell id="XRuTqBJxQ71Pvd6YJQHX-14" value="Network" style="ellipse;shape=cloud;whiteSpace=wrap;html=1;" parent="1" vertex="1">
          <mxGeometry x="380" y="730" width="120" height="80" as="geometry" />
        </mxCell>
        <mxCell id="XRuTqBJxQ71Pvd6YJQHX-15" value="" style="endArrow=classic;html=1;rounded=0;fillColor=#f8cecc;strokeColor=#b85450;" parent="1" edge="1">
          <mxGeometry width="50" height="50" relative="1" as="geometry">
            <mxPoint x="299.5" y="120" as="sourcePoint" />
            <mxPoint x="300" y="600" as="targetPoint" />
          </mxGeometry>
        </mxCell>
        <mxCell id="XRuTqBJxQ71Pvd6YJQHX-16" value="" style="endArrow=classic;html=1;rounded=0;fillColor=#d5e8d4;strokeColor=#82b366;" parent="1" edge="1">
          <mxGeometry width="50" height="50" relative="1" as="geometry">
            <mxPoint x="579.5" y="600" as="sourcePoint" />
            <mxPoint x="579.5" y="120" as="targetPoint" />
          </mxGeometry>
        </mxCell>
        <mxCell id="XRuTqBJxQ71Pvd6YJQHX-18" value="&lt;h1&gt;Sequence&lt;br&gt;&lt;/h1&gt;sequence in struct sock is just some status flags for kernel buffers management, queues for data cache." style="text;html=1;strokeColor=none;fillColor=none;spacing=5;spacingTop=-20;whiteSpace=wrap;overflow=hidden;rounded=0;" parent="1" vertex="1">
          <mxGeometry x="880" y="200" width="190" height="120" as="geometry" />
        </mxCell>
        <mxCell id="e3DUjtO41gpCMddb84AK-1" value="" style="endArrow=classic;html=1;rounded=0;fillColor=#ffe6cc;strokeColor=#d79b00;" edge="1" parent="1">
          <mxGeometry relative="1" as="geometry">
            <mxPoint x="270" y="148" as="sourcePoint" />
            <mxPoint x="270" y="248" as="targetPoint" />
          </mxGeometry>
        </mxCell>
        <mxCell id="e3DUjtO41gpCMddb84AK-2" value="write" style="edgeLabel;resizable=0;html=1;align=center;verticalAlign=middle;" connectable="0" vertex="1" parent="e3DUjtO41gpCMddb84AK-1">
          <mxGeometry relative="1" as="geometry" />
        </mxCell>
        <mxCell id="e3DUjtO41gpCMddb84AK-3" value="" style="endArrow=classic;html=1;rounded=0;fillColor=#ffe6cc;strokeColor=#d79b00;" edge="1" parent="1">
          <mxGeometry relative="1" as="geometry">
            <mxPoint x="270" y="410" as="sourcePoint" />
            <mxPoint x="270" y="500" as="targetPoint" />
          </mxGeometry>
        </mxCell>
        <mxCell id="e3DUjtO41gpCMddb84AK-4" value="&lt;div&gt;send&lt;/div&gt;" style="edgeLabel;resizable=0;html=1;align=center;verticalAlign=middle;" connectable="0" vertex="1" parent="e3DUjtO41gpCMddb84AK-3">
          <mxGeometry relative="1" as="geometry" />
        </mxCell>
        <mxCell id="e3DUjtO41gpCMddb84AK-6" value="" style="endArrow=classic;html=1;rounded=0;entryX=1;entryY=0;entryDx=0;entryDy=0;fillColor=#dae8fc;strokeColor=#6c8ebf;" edge="1" parent="1">
          <mxGeometry relative="1" as="geometry">
            <mxPoint x="620" y="500" as="sourcePoint" />
            <mxPoint x="620" y="410" as="targetPoint" />
          </mxGeometry>
        </mxCell>
        <mxCell id="e3DUjtO41gpCMddb84AK-7" value="recv" style="edgeLabel;resizable=0;html=1;align=center;verticalAlign=middle;" connectable="0" vertex="1" parent="e3DUjtO41gpCMddb84AK-6">
          <mxGeometry relative="1" as="geometry" />
        </mxCell>
        <mxCell id="e3DUjtO41gpCMddb84AK-8" value="" style="endArrow=classic;html=1;rounded=0;entryX=1;entryY=0;entryDx=0;entryDy=0;fillColor=#dae8fc;strokeColor=#6c8ebf;" edge="1" parent="1">
          <mxGeometry relative="1" as="geometry">
            <mxPoint x="620" y="245" as="sourcePoint" />
            <mxPoint x="620" y="155" as="targetPoint" />
          </mxGeometry>
        </mxCell>
        <mxCell id="e3DUjtO41gpCMddb84AK-9" value="read" style="edgeLabel;resizable=0;html=1;align=center;verticalAlign=middle;" connectable="0" vertex="1" parent="e3DUjtO41gpCMddb84AK-8">
          <mxGeometry relative="1" as="geometry" />
        </mxCell>
        <mxCell id="e3DUjtO41gpCMddb84AK-10" value="write_seq, sent_seq, copied_seq, acked_seq all for data sequence" style="text;html=1;strokeColor=none;fillColor=none;align=center;verticalAlign=middle;whiteSpace=wrap;rounded=0;" vertex="1" parent="1">
          <mxGeometry x="880" y="460" width="220" height="120" as="geometry" />
        </mxCell>
        <mxCell id="e3DUjtO41gpCMddb84AK-11" value="&lt;div&gt;write_seq: from app to kernel cache&lt;/div&gt;&lt;div&gt;sent_seq: from kernel to peer end&lt;/div&gt;&lt;div&gt;&lt;br&gt;&lt;/div&gt;&lt;div&gt;acked_seq: from peer to local kernel&lt;/div&gt;&lt;div&gt;copied_seq: from kernel to user space&lt;br&gt;&lt;/div&gt;" style="text;html=1;strokeColor=none;fillColor=none;align=center;verticalAlign=middle;whiteSpace=wrap;rounded=0;" vertex="1" parent="1">
          <mxGeometry x="865" y="330" width="220" height="120" as="geometry" />
        </mxCell>
      </root>
    </mxGraphModel>
  </diagram>
</mxfile>
